<svg width="24" height="25" viewBox="0 0 24 25" fill="none" xmlns="http://www.w3.org/2000/svg">
<path d="M13.7964 17.99C13.7964 17.0042 12.9973 16.2051 12.0115 16.2051C11.0257 16.2051 10.2266 17.0042 10.2266 17.99C10.2266 18.9758 11.0257 19.7749 12.0115 19.7749C12.9973 19.7749 13.7964 18.9758 13.7964 17.99Z" fill="black"/>
<path d="M13.7964 12.5002C13.7964 11.5145 12.9973 10.7153 12.0115 10.7153C11.0257 10.7153 10.2266 11.5145 10.2266 12.5002C10.2266 13.486 11.0257 14.2852 12.0115 14.2852C12.9973 14.2852 13.7964 13.486 13.7964 12.5002Z" fill="black"/>
<path d="M13.7964 7.0105C13.7964 6.02472 12.9973 5.22558 12.0115 5.22558C11.0257 5.22558 10.2266 6.02472 10.2266 7.0105C10.2266 7.99628 11.0257 8.79541 12.0115 8.79541C12.9973 8.79541 13.7964 7.99628 13.7964 7.0105Z" fill="black"/>
</svg>
